<svg id="Layer_1" data-name="Layer 1" xmlns="http://www.w3.org/2000/svg" viewBox="0 0 1000 428.57"><defs><style>.cls-1{fill:#edecdd;}</style></defs><title>logo.light</title><circle class="cls-1" cx="214.29" cy="214.29" r="71.43"/><circle class="cls-1" cx="785.71" cy="214.29" r="71.43"/><path class="cls-1" d="M785.71,0H357.14L342.86,42.86A213.3,213.3,0,0,0,214.29,0C95.94,0,0,95.94,0,214.29S95.94,428.57,214.29,428.57H642.86l14.28-42.85a213.36,213.36,0,0,0,128.57,42.85c118.35,0,214.29-95.94,214.29-214.28S904.06,0,785.71,0Zm0,357.14A142.33,142.33,0,0,1,680.2,310.25c-2.23-2.45-4.41-4.94-6.47-7.54-.7-.88-1.34-1.8-2-2.69-2-2.63-3.92-5.29-5.73-8.06-.68-1-1.3-2.15-2-3.22-1.66-2.69-3.29-5.4-4.77-8.21-.7-1.32-1.3-2.7-2-4-1.29-2.65-2.58-5.31-3.71-8.05-.7-1.68-1.26-3.43-1.89-5.14-.92-2.51-1.88-5-2.67-7.57-.65-2.16-1.14-4.38-1.69-6.57s-1.21-4.45-1.67-6.74c-.56-2.79-.91-5.65-1.3-8.5-.25-1.79-.61-3.53-.79-5.33-.47-4.71-.72-9.47-.72-14.29a141.74,141.74,0,0,1,19.33-71.43H583.65c-.12.32-.19.66-.31,1-1.79,5.16-3.41,10.39-4.81,15.72-.08.29-.15.58-.23.87-1.46,5.63-2.71,11.34-3.71,17.13a1.7,1.7,0,0,0,0,.22q-1.53,8.85-2.32,17.95a.25.25,0,0,1,0,.08q-.78,9.12-.79,18.45v.08c0,4.46.18,8.87.45,13.27.07,1.17.18,2.34.27,3.51.27,3.55.64,7.07,1.08,10.58.12.91.22,1.83.35,2.75a212.15,212.15,0,0,0,5.61,26.95c.09.34.19.67.28,1a213,213,0,0,0,22.67,52.45l-10.77,32.29H214.2C135.47,357.09,71.43,293,71.43,214.29S135.51,71.43,214.29,71.43A142.36,142.36,0,0,1,319.8,118.31c2.23,2.46,4.41,5,6.47,7.55.7.88,1.34,1.8,2,2.7,2,2.63,3.92,5.29,5.72,8.05.69,1,1.31,2.16,2,3.23,1.65,2.69,3.28,5.4,4.76,8.2.7,1.33,1.3,2.71,2,4.07,1.29,2.64,2.58,5.29,3.71,8,.7,1.7,1.27,3.46,1.9,5.19.92,2.5,1.88,5,2.66,7.53.66,2.17,1.15,4.4,1.7,6.61s1.2,4.43,1.66,6.7c.57,2.82.92,5.71,1.32,8.58.24,1.76.59,3.48.77,5.25.47,4.71.72,9.47.72,14.3a141.73,141.73,0,0,1-19.33,71.42h78.54c.12-.32.2-.67.31-1q2.68-7.71,4.81-15.67l.23-.92c1.46-5.62,2.71-11.32,3.71-17.1a1.87,1.87,0,0,0,0-.25q1.53-8.84,2.32-17.92a.19.19,0,0,1,0-.08q.78-9.14.79-18.46v-.07c0-4.46-.18-8.88-.45-13.27-.07-1.18-.18-2.34-.27-3.51-.27-3.56-.64-7.08-1.08-10.58-.12-.92-.22-1.84-.35-2.76a214.09,214.09,0,0,0-5.6-26.94c-.1-.34-.2-.68-.29-1a213,213,0,0,0-22.67-52.44l10.77-32.29H785.71c78.78,0,142.86,64.08,142.86,142.86S864.49,357.14,785.71,357.14Z"/></svg>