<svg id="Layer_1" data-name="Layer 1" xmlns="http://www.w3.org/2000/svg" viewBox="0 0 1000 517.07"><defs><style>.cls-1{fill:#00022e;}.cls-2{fill:#edecdd;}</style></defs><title>logo</title><path class="cls-1" d="M972.64,144.8c-22-30.88-57.28-47.88-99.2-47.88-37.65,0-73.3,14-103.62,40.63-2.73-2.78-5.45-5.27-8.11-7.51-25.24-21.22-57.45-32-95.73-32a221.71,221.71,0,0,0-75.66,13.47,292.16,292.16,0,0,0-60.87,30.92c-.88-1-1.75-1.91-2.62-2.79-26.61-27.22-62.19-41.6-102.87-41.6a162.76,162.76,0,0,0-38,4.51c-3.9-39.84-23.15-63.19-39.52-76C324.14,8.93,296.23,0,263.55,0a280.51,280.51,0,0,0-50.32,4.64,324.07,324.07,0,0,0-55.14,15.57L92.14,44.75l34.42,61.39a165.1,165.1,0,0,1,9.68,20.62c3.35,8.66,6.72,18.71,10,29.87l8.87,29.62-.05.15c-9.81,28.2-21.2,58.49-33.85,90s-25.38,61.2-38,88.54c-16.75,36.47-22.78,46.27-23.81,47.86L0,504.16l109,1.77c21.6.35,40.59,1.15,56.58,2.38,16.24,1.21,32.84,2.6,49.32,4.15l49.31,4.61,4.51-15.21c21,8.35,44.36,12.57,69.68,12.57a186,186,0,0,0,98.19-27.78c4.55-2.76,8.95-5.71,13.29-8.74l-14.41,35,94.35-4.19c5.19-.23,17.91-.55,49.05-.76,30.48-.23,56.73-.33,82.6-.33s52.32.1,83.49.33c31.92.22,45.48.54,51.25.77l51.18,2.08,10.29-50.18a137.39,137.39,0,0,1,8.71-26.93c4.51-10.38,8.89-20.77,13.07-31A109,109,0,0,0,938.13,383a127.6,127.6,0,0,0,38.59-43.58,181.66,181.66,0,0,0,18-50,250.26,250.26,0,0,0,5.25-51.22C1000,201.74,990.81,170.33,972.64,144.8Z"/><path class="cls-2" d="M227.29,146.37c0-3.74-.85-6.6-2.56-8.49a8.36,8.36,0,0,0-6.53-2.81,22,22,0,0,0-5.95,1.11,56.51,56.51,0,0,0-8.21,3.41q-5.67-19.23-11.62-34.6a224,224,0,0,0-13.31-28.32,263.82,263.82,0,0,1,44.77-12.73,220,220,0,0,1,39.67-3.69q28.33,0,45.64,13.61t17.28,43.64a113.85,113.85,0,0,1-3.12,26.61A273.57,273.57,0,0,1,314.56,173c-3.78,10.57-8.3,22.7-13.6,36.26s-11.14,29.7-17.55,48.2h6.22q28.89-51,64.33-75.09t70-24.08q36.84,0,59.8,23.48t22.95,64.9q0,36.32-12.73,73.43a236.63,236.63,0,0,1-35.15,66.61,192.57,192.57,0,0,1-53.58,48.43,126,126,0,0,1-66.88,19q-35.72,0-61.21-15t-37.41-43.91q-4.55,13-9.64,27.49t-9.62,29.75q-24.39-2.28-50.46-4.24t-60.09-2.54q8.52-13.08,28.07-55.58t39.12-91.24Q196.68,250.15,212,206.2T227.29,146.37Zm89.56,227.87A62.87,62.87,0,0,0,351.12,364a115.78,115.78,0,0,0,28.35-25.23A125.58,125.58,0,0,0,398.75,306q7-17.85,7.08-33.16c0-9.46-2.38-16.56-7.08-21.27s-11.84-7.1-21.27-7.1q-29.48,0-61.49,25.23t-58.67,83a99.17,99.17,0,0,0,59.53,21.54Z"/><path class="cls-2" d="M798.62,448.5q-13.59-.56-53.27-.83t-83.91-.32q-44.18,0-83,.32t-51.29.83q7.92-19.23,16.14-39.11a215.58,215.58,0,0,0,12.2-39.12c4.15,0,10.38.28,18.71.88s18.13.83,29.47.83c7.94,0,14.26-1.62,19-4.8s9.16-10.1,13.34-20.71a408.81,408.81,0,0,0,18.12-54.71q6.23-25.18,6.23-36c0-6.41-1.5-11.62-4.52-15.59s-7.75-5.95-14.18-5.95a62.24,62.24,0,0,0-23,4.85q-12.21,4.77-30.33,17.25c-5.28-11.67-10.68-22.56-16.15-32.57A156.06,156.06,0,0,0,554.89,198q28.33-19.86,55.83-29.76A161.09,161.09,0,0,1,666,158.32q35.71,0,57,17.85t21.27,53.55a202.89,202.89,0,0,1-1.43,20.39q-1.42,13.08-4.25,30h6.81q28.88-63.45,59.78-93.22t68.31-29.76q34,0,50.16,22.65t16.15,58.4a188.87,188.87,0,0,1-4,38.84,121,121,0,0,1-11.9,33.44,67.54,67.54,0,0,1-20.41,23.25q-12.45,8.79-28.9,8.76-18.72,0-29.75-11.34c-7.38-7.52-11.05-17.76-11.05-30.59a56.1,56.1,0,0,1,11.6-34.31q11.63-15.57,36-17.26a63.7,63.7,0,0,0-12.17-4.56,58.52,58.52,0,0,0-14.46-1.71q-34,0-63.5,26.66T744.77,342.5c-2.65,7.94-3,14.86-1.13,20.71s7.93,8.77,18.13,8.77c14,0,27-.19,39.11-.56s21-.73,26.64-1.15q-7.92,19.86-16.42,39.39A197.11,197.11,0,0,0,798.62,448.5Z"/></svg>