<svg id="Layer_1" data-name="Layer 1" xmlns="http://www.w3.org/2000/svg" viewBox="0 0 999.9 999.9"><defs><style>.cls-1{fill:#edecdd;}</style></defs><title>logo.circle.light</title><path class="cls-1" d="M666.7,416.37H446.76l-6.28,18.83a124.5,124.5,0,0,1,13.22,30.59c.05.2.11.4.17.6a123.24,123.24,0,0,1,3.26,15.71c.08.53.14,1.07.21,1.61.26,2,.47,4.09.63,6.17,0,.68.11,1.36.15,2,.16,2.57.27,5.14.27,7.74v0h0c0,3.63-.16,7.22-.46,10.77a.09.09,0,0,0,0,0c-.3,3.53-.76,7-1.35,10.46a.59.59,0,0,0,0,.14q-.89,5.05-2.17,10c0,.18-.09.36-.14.54-.81,3.09-1.75,6.14-2.8,9.14-.06.19-.11.39-.18.58H405.45a82.3,82.3,0,0,0,10.85-50c-.1-1-.31-2-.45-3.07-.23-1.68-.43-3.36-.76-5-.27-1.33-.64-2.61-1-3.91s-.61-2.59-1-3.86c-.45-1.49-1-2.93-1.54-4.39-.37-1-.7-2-1.11-3-.66-1.6-1.41-3.14-2.17-4.69-.38-.78-.73-1.59-1.14-2.37-.86-1.63-1.81-3.21-2.78-4.78-.38-.63-.74-1.27-1.14-1.89-1.06-1.61-2.19-3.16-3.34-4.69-.4-.52-.77-1.06-1.18-1.57-1.2-1.52-2.48-3-3.78-4.41A83.27,83.27,0,1,0,333.35,583h220l6.28-18.84a124.14,124.14,0,0,1-13.23-30.59c0-.2-.11-.39-.16-.58A125.91,125.91,0,0,1,543,517.29c-.08-.54-.13-1.08-.2-1.61-.26-2-.48-4.1-.64-6.17,0-.68-.11-1.36-.15-2.05-.16-2.56-.27-5.14-.27-7.74v0h0q0-5.44.47-10.77v0q.47-5.31,1.36-10.47s0-.09,0-.13q.88-5.07,2.17-10c0-.17.09-.34.13-.51.83-3.11,1.77-6.16,2.81-9.17.07-.18.11-.38.18-.57h45.81a82.69,82.69,0,0,0-10.85,50c.1,1.05.31,2.07.46,3.11.23,1.66.43,3.33.76,5,.26,1.33.64,2.62,1,3.93s.61,2.57,1,3.83c.45,1.5,1,2.95,1.55,4.41.37,1,.7,2,1.1,3,.66,1.6,1.42,3.15,2.17,4.7.39.78.74,1.59,1.14,2.36.87,1.64,1.82,3.22,2.78,4.79.39.62.75,1.26,1.15,1.88,1,1.61,2.18,3.16,3.34,4.7.39.52.77,1.06,1.17,1.57,1.2,1.51,2.48,3,3.78,4.4a83.27,83.27,0,1,0,61.54-139.3Zm-333.3,125a41.66,41.66,0,1,1,41.66-41.66A41.66,41.66,0,0,1,333.4,541.35Zm333.3,0a41.66,41.66,0,1,1,41.66-41.66A41.66,41.66,0,0,1,666.7,541.35Z" transform="translate(-0.1 0.26)"/><path class="cls-1" d="M500.05-.26C223.94-.26.1,223.58.1,499.69s223.84,500,500,500,500-223.83,500-499.95S776.17-.26,500.05-.26ZM666.7,624.68a124.37,124.37,0,0,1-75-25l-8.33,25h-250a125,125,0,1,1,75-225l8.34-25h250a125,125,0,1,1,0,250Z" transform="translate(-0.1 0.26)"/></svg>